<svg xmlns="http://www.w3.org/2000/svg" viewBox="0 0 1090.00 511.39">
  <style>
    .key-bg { fill: #f5f5f5; stroke: #d4d4d4; stroke-width: 1; }
    .key-index { fill: #171717; font-family: ui-monospace, SFMono-Regular, "SF Mono", Menlo, Consolas, "Liberation Mono", monospace; font-weight: 700; text-anchor: middle; dominant-baseline: central; }
    .key-part { font-family: system-ui, -apple-system, BlinkMacSystemFont, "Segoe UI", Roboto, sans-serif; text-anchor: middle; dominant-baseline: central; }
    @media (prefers-color-scheme: dark) {
      .key-bg { fill: #2a2a2a; stroke: #404040; }
      .key-index { fill: #e5e5e5; }
    }
    .key-bg.part-0 { stroke: #f59e0b; }
    .key-part.part-0 { fill: #f59e0b; }
    .key-bg.part-1 { stroke: #14b8a6; }
    .key-part.part-1 { fill: #14b8a6; }
  </style>
  <g>
    <path class="key-bg part-0" d="M 26.00,48.60 L 84.00,48.60 Q 88.00,48.60 88.00,52.60 L 88.00,110.60 Q 88.00,114.60 84.00,114.60 L 26.00,114.60 Q 22.00,114.60 22.00,110.60 L 22.00,52.60 Q 22.00,48.60 26.00,48.60 Z" />
    <path class="key-bg part-0" d="M 96.00,48.60 L 154.00,48.60 Q 158.00,48.60 158.00,52.60 L 158.00,110.60 Q 158.00,114.60 154.00,114.60 L 96.00,114.60 Q 92.00,114.60 92.00,110.60 L 92.00,52.60 Q 92.00,48.60 96.00,48.60 Z" />
    <path class="key-bg part-0" d="M 166.00,30.40 L 224.00,30.40 Q 228.00,30.40 228.00,34.40 L 228.00,92.40 Q 228.00,96.40 224.00,96.40 L 166.00,96.40 Q 162.00,96.40 162.00,92.40 L 162.00,34.40 Q 162.00,30.40 166.00,30.40 Z" />
    <path class="key-bg part-0" d="M 236.00,22.00 L 294.00,22.00 Q 298.00,22.00 298.00,26.00 L 298.00,84.00 Q 298.00,88.00 294.00,88.00 L 236.00,88.00 Q 232.00,88.00 232.00,84.00 L 232.00,26.00 Q 232.00,22.00 236.00,22.00 Z" />
    <path class="key-bg part-0" d="M 306.00,30.40 L 364.00,30.40 Q 368.00,30.40 368.00,34.40 L 368.00,92.40 Q 368.00,96.40 364.00,96.40 L 306.00,96.40 Q 302.00,96.40 302.00,92.40 L 302.00,34.40 Q 302.00,30.40 306.00,30.40 Z" />
    <path class="key-bg part-0" d="M 376.00,30.40 L 434.00,30.40 Q 438.00,30.40 438.00,34.40 L 438.00,92.40 Q 438.00,96.40 434.00,96.40 L 376.00,96.40 Q 372.00,96.40 372.00,92.40 L 372.00,34.40 Q 372.00,30.40 376.00,30.40 Z" />
    <path class="key-bg part-1" d="M 656.00,30.40 L 714.00,30.40 Q 718.00,30.40 718.00,34.40 L 718.00,92.40 Q 718.00,96.40 714.00,96.40 L 656.00,96.40 Q 652.00,96.40 652.00,92.40 L 652.00,34.40 Q 652.00,30.40 656.00,30.40 Z" />
    <path class="key-bg part-1" d="M 726.00,30.40 L 784.00,30.40 Q 788.00,30.40 788.00,34.40 L 788.00,92.40 Q 788.00,96.40 784.00,96.40 L 726.00,96.40 Q 722.00,96.40 722.00,92.40 L 722.00,34.40 Q 722.00,30.40 726.00,30.40 Z" />
    <path class="key-bg part-1" d="M 796.00,22.00 L 854.00,22.00 Q 858.00,22.00 858.00,26.00 L 858.00,84.00 Q 858.00,88.00 854.00,88.00 L 796.00,88.00 Q 792.00,88.00 792.00,84.00 L 792.00,26.00 Q 792.00,22.00 796.00,22.00 Z" />
    <path class="key-bg part-1" d="M 866.00,30.40 L 924.00,30.40 Q 928.00,30.40 928.00,34.40 L 928.00,92.40 Q 928.00,96.40 924.00,96.40 L 866.00,96.40 Q 862.00,96.40 862.00,92.40 L 862.00,34.40 Q 862.00,30.40 866.00,30.40 Z" />
    <path class="key-bg part-1" d="M 936.00,48.60 L 994.00,48.60 Q 998.00,48.60 998.00,52.60 L 998.00,110.60 Q 998.00,114.60 994.00,114.60 L 936.00,114.60 Q 932.00,114.60 932.00,110.60 L 932.00,52.60 Q 932.00,48.60 936.00,48.60 Z" />
    <path class="key-bg part-1" d="M 1006.00,48.60 L 1064.00,48.60 Q 1068.00,48.60 1068.00,52.60 L 1068.00,110.60 Q 1068.00,114.60 1064.00,114.60 L 1006.00,114.60 Q 1002.00,114.60 1002.00,110.60 L 1002.00,52.60 Q 1002.00,48.60 1006.00,48.60 Z" />
    <path class="key-bg part-0" d="M 26.00,118.60 L 84.00,118.60 Q 88.00,118.60 88.00,122.60 L 88.00,180.60 Q 88.00,184.60 84.00,184.60 L 26.00,184.60 Q 22.00,184.60 22.00,180.60 L 22.00,122.60 Q 22.00,118.60 26.00,118.60 Z" />
    <path class="key-bg part-0" d="M 96.00,118.60 L 154.00,118.60 Q 158.00,118.60 158.00,122.60 L 158.00,180.60 Q 158.00,184.60 154.00,184.60 L 96.00,184.60 Q 92.00,184.60 92.00,180.60 L 92.00,122.60 Q 92.00,118.60 96.00,118.60 Z" />
    <path class="key-bg part-0" d="M 166.00,100.40 L 224.00,100.40 Q 228.00,100.40 228.00,104.40 L 228.00,162.40 Q 228.00,166.40 224.00,166.40 L 166.00,166.40 Q 162.00,166.40 162.00,162.40 L 162.00,104.40 Q 162.00,100.40 166.00,100.40 Z" />
    <path class="key-bg part-0" d="M 236.00,92.00 L 294.00,92.00 Q 298.00,92.00 298.00,96.00 L 298.00,154.00 Q 298.00,158.00 294.00,158.00 L 236.00,158.00 Q 232.00,158.00 232.00,154.00 L 232.00,96.00 Q 232.00,92.00 236.00,92.00 Z" />
    <path class="key-bg part-0" d="M 306.00,100.40 L 364.00,100.40 Q 368.00,100.40 368.00,104.40 L 368.00,162.40 Q 368.00,166.40 364.00,166.40 L 306.00,166.40 Q 302.00,166.40 302.00,162.40 L 302.00,104.40 Q 302.00,100.40 306.00,100.40 Z" />
    <path class="key-bg part-0" d="M 376.00,100.40 L 434.00,100.40 Q 438.00,100.40 438.00,104.40 L 438.00,162.40 Q 438.00,166.40 434.00,166.40 L 376.00,166.40 Q 372.00,166.40 372.00,162.40 L 372.00,104.40 Q 372.00,100.40 376.00,100.40 Z" />
    <path class="key-bg part-1" d="M 656.00,100.40 L 714.00,100.40 Q 718.00,100.40 718.00,104.40 L 718.00,162.40 Q 718.00,166.40 714.00,166.40 L 656.00,166.40 Q 652.00,166.40 652.00,162.40 L 652.00,104.40 Q 652.00,100.40 656.00,100.40 Z" />
    <path class="key-bg part-1" d="M 726.00,100.40 L 784.00,100.40 Q 788.00,100.40 788.00,104.40 L 788.00,162.40 Q 788.00,166.40 784.00,166.40 L 726.00,166.40 Q 722.00,166.40 722.00,162.40 L 722.00,104.40 Q 722.00,100.40 726.00,100.40 Z" />
    <path class="key-bg part-1" d="M 796.00,92.00 L 854.00,92.00 Q 858.00,92.00 858.00,96.00 L 858.00,154.00 Q 858.00,158.00 854.00,158.00 L 796.00,158.00 Q 792.00,158.00 792.00,154.00 L 792.00,96.00 Q 792.00,92.00 796.00,92.00 Z" />
    <path class="key-bg part-1" d="M 866.00,100.40 L 924.00,100.40 Q 928.00,100.40 928.00,104.40 L 928.00,162.40 Q 928.00,166.40 924.00,166.40 L 866.00,166.40 Q 862.00,166.40 862.00,162.40 L 862.00,104.40 Q 862.00,100.40 866.00,100.40 Z" />
    <path class="key-bg part-1" d="M 936.00,118.60 L 994.00,118.60 Q 998.00,118.60 998.00,122.60 L 998.00,180.60 Q 998.00,184.60 994.00,184.60 L 936.00,184.60 Q 932.00,184.60 932.00,180.60 L 932.00,122.60 Q 932.00,118.60 936.00,118.60 Z" />
    <path class="key-bg part-1" d="M 1006.00,118.60 L 1064.00,118.60 Q 1068.00,118.60 1068.00,122.60 L 1068.00,180.60 Q 1068.00,184.60 1064.00,184.60 L 1006.00,184.60 Q 1002.00,184.60 1002.00,180.60 L 1002.00,122.60 Q 1002.00,118.60 1006.00,118.60 Z" />
    <path class="key-bg part-0" d="M 26.00,188.60 L 84.00,188.60 Q 88.00,188.60 88.00,192.60 L 88.00,250.60 Q 88.00,254.60 84.00,254.60 L 26.00,254.60 Q 22.00,254.60 22.00,250.60 L 22.00,192.60 Q 22.00,188.60 26.00,188.60 Z" />
    <path class="key-bg part-0" d="M 96.00,188.60 L 154.00,188.60 Q 158.00,188.60 158.00,192.60 L 158.00,250.60 Q 158.00,254.60 154.00,254.60 L 96.00,254.60 Q 92.00,254.60 92.00,250.60 L 92.00,192.60 Q 92.00,188.60 96.00,188.60 Z" />
    <path class="key-bg part-0" d="M 166.00,170.40 L 224.00,170.40 Q 228.00,170.40 228.00,174.40 L 228.00,232.40 Q 228.00,236.40 224.00,236.40 L 166.00,236.40 Q 162.00,236.40 162.00,232.40 L 162.00,174.40 Q 162.00,170.40 166.00,170.40 Z" />
    <path class="key-bg part-0" d="M 236.00,162.00 L 294.00,162.00 Q 298.00,162.00 298.00,166.00 L 298.00,224.00 Q 298.00,228.00 294.00,228.00 L 236.00,228.00 Q 232.00,228.00 232.00,224.00 L 232.00,166.00 Q 232.00,162.00 236.00,162.00 Z" />
    <path class="key-bg part-0" d="M 306.00,170.40 L 364.00,170.40 Q 368.00,170.40 368.00,174.40 L 368.00,232.40 Q 368.00,236.40 364.00,236.40 L 306.00,236.40 Q 302.00,236.40 302.00,232.40 L 302.00,174.40 Q 302.00,170.40 306.00,170.40 Z" />
    <path class="key-bg part-0" d="M 376.00,170.40 L 434.00,170.40 Q 438.00,170.40 438.00,174.40 L 438.00,232.40 Q 438.00,236.40 434.00,236.40 L 376.00,236.40 Q 372.00,236.40 372.00,232.40 L 372.00,174.40 Q 372.00,170.40 376.00,170.40 Z" />
    <path class="key-bg part-1" d="M 656.00,170.40 L 714.00,170.40 Q 718.00,170.40 718.00,174.40 L 718.00,232.40 Q 718.00,236.40 714.00,236.40 L 656.00,236.40 Q 652.00,236.40 652.00,232.40 L 652.00,174.40 Q 652.00,170.40 656.00,170.40 Z" />
    <path class="key-bg part-1" d="M 726.00,170.40 L 784.00,170.40 Q 788.00,170.40 788.00,174.40 L 788.00,232.40 Q 788.00,236.40 784.00,236.40 L 726.00,236.40 Q 722.00,236.40 722.00,232.40 L 722.00,174.40 Q 722.00,170.40 726.00,170.40 Z" />
    <path class="key-bg part-1" d="M 796.00,162.00 L 854.00,162.00 Q 858.00,162.00 858.00,166.00 L 858.00,224.00 Q 858.00,228.00 854.00,228.00 L 796.00,228.00 Q 792.00,228.00 792.00,224.00 L 792.00,166.00 Q 792.00,162.00 796.00,162.00 Z" />
    <path class="key-bg part-1" d="M 866.00,170.40 L 924.00,170.40 Q 928.00,170.40 928.00,174.40 L 928.00,232.40 Q 928.00,236.40 924.00,236.40 L 866.00,236.40 Q 862.00,236.40 862.00,232.40 L 862.00,174.40 Q 862.00,170.40 866.00,170.40 Z" />
    <path class="key-bg part-1" d="M 936.00,188.60 L 994.00,188.60 Q 998.00,188.60 998.00,192.60 L 998.00,250.60 Q 998.00,254.60 994.00,254.60 L 936.00,254.60 Q 932.00,254.60 932.00,250.60 L 932.00,192.60 Q 932.00,188.60 936.00,188.60 Z" />
    <path class="key-bg part-1" d="M 1006.00,188.60 L 1064.00,188.60 Q 1068.00,188.60 1068.00,192.60 L 1068.00,250.60 Q 1068.00,254.60 1064.00,254.60 L 1006.00,254.60 Q 1002.00,254.60 1002.00,250.60 L 1002.00,192.60 Q 1002.00,188.60 1006.00,188.60 Z" />
    <path class="key-bg part-0" d="M 26.00,258.60 L 84.00,258.60 Q 88.00,258.60 88.00,262.60 L 88.00,320.60 Q 88.00,324.60 84.00,324.60 L 26.00,324.60 Q 22.00,324.60 22.00,320.60 L 22.00,262.60 Q 22.00,258.60 26.00,258.60 Z" />
    <path class="key-bg part-0" d="M 96.00,258.60 L 154.00,258.60 Q 158.00,258.60 158.00,262.60 L 158.00,320.60 Q 158.00,324.60 154.00,324.60 L 96.00,324.60 Q 92.00,324.60 92.00,320.60 L 92.00,262.60 Q 92.00,258.60 96.00,258.60 Z" />
    <path class="key-bg part-0" d="M 166.00,240.40 L 224.00,240.40 Q 228.00,240.40 228.00,244.40 L 228.00,302.40 Q 228.00,306.40 224.00,306.40 L 166.00,306.40 Q 162.00,306.40 162.00,302.40 L 162.00,244.40 Q 162.00,240.40 166.00,240.40 Z" />
    <path class="key-bg part-0" d="M 236.00,232.00 L 294.00,232.00 Q 298.00,232.00 298.00,236.00 L 298.00,294.00 Q 298.00,298.00 294.00,298.00 L 236.00,298.00 Q 232.00,298.00 232.00,294.00 L 232.00,236.00 Q 232.00,232.00 236.00,232.00 Z" />
    <path class="key-bg part-0" d="M 306.00,240.40 L 364.00,240.40 Q 368.00,240.40 368.00,244.40 L 368.00,302.40 Q 368.00,306.40 364.00,306.40 L 306.00,306.40 Q 302.00,306.40 302.00,302.40 L 302.00,244.40 Q 302.00,240.40 306.00,240.40 Z" />
    <path class="key-bg part-0" d="M 376.00,240.40 L 434.00,240.40 Q 438.00,240.40 438.00,244.40 L 438.00,302.40 Q 438.00,306.40 434.00,306.40 L 376.00,306.40 Q 372.00,306.40 372.00,302.40 L 372.00,244.40 Q 372.00,240.40 376.00,240.40 Z" />
    <path class="key-bg part-1" d="M 656.00,240.40 L 714.00,240.40 Q 718.00,240.40 718.00,244.40 L 718.00,302.40 Q 718.00,306.40 714.00,306.40 L 656.00,306.40 Q 652.00,306.40 652.00,302.40 L 652.00,244.40 Q 652.00,240.40 656.00,240.40 Z" />
    <path class="key-bg part-1" d="M 726.00,240.40 L 784.00,240.40 Q 788.00,240.40 788.00,244.40 L 788.00,302.40 Q 788.00,306.40 784.00,306.40 L 726.00,306.40 Q 722.00,306.40 722.00,302.40 L 722.00,244.40 Q 722.00,240.40 726.00,240.40 Z" />
    <path class="key-bg part-1" d="M 796.00,232.00 L 854.00,232.00 Q 858.00,232.00 858.00,236.00 L 858.00,294.00 Q 858.00,298.00 854.00,298.00 L 796.00,298.00 Q 792.00,298.00 792.00,294.00 L 792.00,236.00 Q 792.00,232.00 796.00,232.00 Z" />
    <path class="key-bg part-1" d="M 866.00,240.40 L 924.00,240.40 Q 928.00,240.40 928.00,244.40 L 928.00,302.40 Q 928.00,306.40 924.00,306.40 L 866.00,306.40 Q 862.00,306.40 862.00,302.40 L 862.00,244.40 Q 862.00,240.40 866.00,240.40 Z" />
    <path class="key-bg part-1" d="M 936.00,258.60 L 994.00,258.60 Q 998.00,258.60 998.00,262.60 L 998.00,320.60 Q 998.00,324.60 994.00,324.60 L 936.00,324.60 Q 932.00,324.60 932.00,320.60 L 932.00,262.60 Q 932.00,258.60 936.00,258.60 Z" />
    <path class="key-bg part-1" d="M 1006.00,258.60 L 1064.00,258.60 Q 1068.00,258.60 1068.00,262.60 L 1068.00,320.60 Q 1068.00,324.60 1064.00,324.60 L 1006.00,324.60 Q 1002.00,324.60 1002.00,320.60 L 1002.00,262.60 Q 1002.00,258.60 1006.00,258.60 Z" />
    <path class="key-bg part-0" d="M 385.52,325.88 L 441.55,340.89 Q 445.41,341.92 444.37,345.79 L 429.36,401.81 Q 428.33,405.67 424.46,404.64 L 368.44,389.63 Q 364.58,388.59 365.61,384.73 L 380.62,328.70 Q 381.66,324.84 385.52,325.88 Z" />
    <path class="key-bg part-0" d="M 452.05,348.05 L 508.07,363.06 Q 511.94,364.10 510.90,367.96 L 495.89,423.98 Q 494.86,427.85 490.99,426.81 L 434.97,411.80 Q 431.10,410.77 432.14,406.90 L 447.15,350.88 Q 448.19,347.02 452.05,348.05 Z" />
    <path class="key-bg part-0" d="M 409.59,409.14 L 465.61,424.15 Q 469.48,425.19 468.44,429.05 L 453.43,485.08 Q 452.40,488.94 448.53,487.91 L 392.51,472.89 Q 388.65,471.86 389.68,468.00 L 404.69,411.97 Q 405.73,408.11 409.59,409.14 Z" />
    <path class="key-bg part-1" d="M 637.79,364.93 L 688.01,335.93 Q 691.48,333.93 693.48,337.40 L 722.48,387.63 Q 724.48,391.09 721.01,393.09 L 670.79,422.09 Q 667.32,424.09 665.32,420.63 L 636.32,370.40 Q 634.32,366.93 637.79,364.93 Z" />
    <path class="key-bg part-1" d="M 705.93,325.49 L 761.95,310.48 Q 765.81,309.44 766.85,313.31 L 781.86,369.33 Q 782.90,373.19 779.03,374.23 L 723.01,389.24 Q 719.15,390.27 718.11,386.41 L 703.10,330.39 Q 702.06,326.52 705.93,325.49 Z" />
    <path class="key-bg part-1" d="M 783.28,306.57 L 841.06,301.51 Q 845.04,301.16 845.39,305.15 L 850.45,362.93 Q 850.80,366.91 846.81,367.26 L 789.03,372.32 Q 785.05,372.66 784.70,368.68 L 779.64,310.90 Q 779.30,306.91 783.28,306.57 Z" />
    <path class="key-bg part-1" d="M 672.79,425.55 L 723.01,396.55 Q 726.48,394.55 728.48,398.02 L 757.48,448.25 Q 759.48,451.71 756.01,453.71 L 705.79,482.71 Q 702.32,484.71 700.32,481.25 L 671.32,431.02 Q 669.32,427.55 672.79,425.55 Z" />
    <path class="key-bg part-1" d="M 741.45,390.40 L 797.47,375.38 Q 801.34,374.35 802.37,378.21 L 817.38,434.24 Q 818.42,438.10 814.55,439.14 L 758.53,454.15 Q 754.67,455.18 753.63,451.32 L 738.62,395.30 Q 737.58,391.43 741.45,390.40 Z" />
  </g>
  <g>
    <text class="key-index" x="55.00" y="69.96" font-size="26">0</text>
    <text class="key-part part-0" x="55.00" y="97.24" font-size="18">left</text>
    <text class="key-index" x="125.00" y="69.96" font-size="26">1</text>
    <text class="key-part part-0" x="125.00" y="97.24" font-size="18">left</text>
    <text class="key-index" x="195.00" y="51.76" font-size="26">2</text>
    <text class="key-part part-0" x="195.00" y="79.04" font-size="18">left</text>
    <text class="key-index" x="265.00" y="43.36" font-size="26">3</text>
    <text class="key-part part-0" x="265.00" y="70.64" font-size="18">left</text>
    <text class="key-index" x="335.00" y="51.76" font-size="26">4</text>
    <text class="key-part part-0" x="335.00" y="79.04" font-size="18">left</text>
    <text class="key-index" x="405.00" y="51.76" font-size="26">5</text>
    <text class="key-part part-0" x="405.00" y="79.04" font-size="18">left</text>
    <text class="key-index" x="685.00" y="51.76" font-size="26">6</text>
    <text class="key-part part-1" x="685.00" y="79.04" font-size="18">right</text>
    <text class="key-index" x="755.00" y="51.76" font-size="26">7</text>
    <text class="key-part part-1" x="755.00" y="79.04" font-size="18">right</text>
    <text class="key-index" x="825.00" y="43.36" font-size="26">8</text>
    <text class="key-part part-1" x="825.00" y="70.64" font-size="18">right</text>
    <text class="key-index" x="895.00" y="51.76" font-size="26">9</text>
    <text class="key-part part-1" x="895.00" y="79.04" font-size="18">right</text>
    <text class="key-index" x="965.00" y="69.96" font-size="26">10</text>
    <text class="key-part part-1" x="965.00" y="97.24" font-size="18">right</text>
    <text class="key-index" x="1035.00" y="69.96" font-size="26">11</text>
    <text class="key-part part-1" x="1035.00" y="97.24" font-size="18">right</text>
    <text class="key-index" x="55.00" y="139.96" font-size="26">12</text>
    <text class="key-part part-0" x="55.00" y="167.24" font-size="18">left</text>
    <text class="key-index" x="125.00" y="139.96" font-size="26">13</text>
    <text class="key-part part-0" x="125.00" y="167.24" font-size="18">left</text>
    <text class="key-index" x="195.00" y="121.76" font-size="26">14</text>
    <text class="key-part part-0" x="195.00" y="149.04" font-size="18">left</text>
    <text class="key-index" x="265.00" y="113.36" font-size="26">15</text>
    <text class="key-part part-0" x="265.00" y="140.64" font-size="18">left</text>
    <text class="key-index" x="335.00" y="121.76" font-size="26">16</text>
    <text class="key-part part-0" x="335.00" y="149.04" font-size="18">left</text>
    <text class="key-index" x="405.00" y="121.76" font-size="26">17</text>
    <text class="key-part part-0" x="405.00" y="149.04" font-size="18">left</text>
    <text class="key-index" x="685.00" y="121.76" font-size="26">18</text>
    <text class="key-part part-1" x="685.00" y="149.04" font-size="18">right</text>
    <text class="key-index" x="755.00" y="121.76" font-size="26">19</text>
    <text class="key-part part-1" x="755.00" y="149.04" font-size="18">right</text>
    <text class="key-index" x="825.00" y="113.36" font-size="26">20</text>
    <text class="key-part part-1" x="825.00" y="140.64" font-size="18">right</text>
    <text class="key-index" x="895.00" y="121.76" font-size="26">21</text>
    <text class="key-part part-1" x="895.00" y="149.04" font-size="18">right</text>
    <text class="key-index" x="965.00" y="139.96" font-size="26">22</text>
    <text class="key-part part-1" x="965.00" y="167.24" font-size="18">right</text>
    <text class="key-index" x="1035.00" y="139.96" font-size="26">23</text>
    <text class="key-part part-1" x="1035.00" y="167.24" font-size="18">right</text>
    <text class="key-index" x="55.00" y="209.96" font-size="26">24</text>
    <text class="key-part part-0" x="55.00" y="237.24" font-size="18">left</text>
    <text class="key-index" x="125.00" y="209.96" font-size="26">25</text>
    <text class="key-part part-0" x="125.00" y="237.24" font-size="18">left</text>
    <text class="key-index" x="195.00" y="191.76" font-size="26">26</text>
    <text class="key-part part-0" x="195.00" y="219.04" font-size="18">left</text>
    <text class="key-index" x="265.00" y="183.36" font-size="26">27</text>
    <text class="key-part part-0" x="265.00" y="210.64" font-size="18">left</text>
    <text class="key-index" x="335.00" y="191.76" font-size="26">28</text>
    <text class="key-part part-0" x="335.00" y="219.04" font-size="18">left</text>
    <text class="key-index" x="405.00" y="191.76" font-size="26">29</text>
    <text class="key-part part-0" x="405.00" y="219.04" font-size="18">left</text>
    <text class="key-index" x="685.00" y="191.76" font-size="26">30</text>
    <text class="key-part part-1" x="685.00" y="219.04" font-size="18">right</text>
    <text class="key-index" x="755.00" y="191.76" font-size="26">31</text>
    <text class="key-part part-1" x="755.00" y="219.04" font-size="18">right</text>
    <text class="key-index" x="825.00" y="183.36" font-size="26">32</text>
    <text class="key-part part-1" x="825.00" y="210.64" font-size="18">right</text>
    <text class="key-index" x="895.00" y="191.76" font-size="26">33</text>
    <text class="key-part part-1" x="895.00" y="219.04" font-size="18">right</text>
    <text class="key-index" x="965.00" y="209.96" font-size="26">34</text>
    <text class="key-part part-1" x="965.00" y="237.24" font-size="18">right</text>
    <text class="key-index" x="1035.00" y="209.96" font-size="26">35</text>
    <text class="key-part part-1" x="1035.00" y="237.24" font-size="18">right</text>
    <text class="key-index" x="55.00" y="279.96" font-size="26">36</text>
    <text class="key-part part-0" x="55.00" y="307.24" font-size="18">left</text>
    <text class="key-index" x="125.00" y="279.96" font-size="26">37</text>
    <text class="key-part part-0" x="125.00" y="307.24" font-size="18">left</text>
    <text class="key-index" x="195.00" y="261.76" font-size="26">38</text>
    <text class="key-part part-0" x="195.00" y="289.04" font-size="18">left</text>
    <text class="key-index" x="265.00" y="253.36" font-size="26">39</text>
    <text class="key-part part-0" x="265.00" y="280.64" font-size="18">left</text>
    <text class="key-index" x="335.00" y="261.76" font-size="26">40</text>
    <text class="key-part part-0" x="335.00" y="289.04" font-size="18">left</text>
    <text class="key-index" x="405.00" y="261.76" font-size="26">41</text>
    <text class="key-part part-0" x="405.00" y="289.04" font-size="18">left</text>
    <text class="key-index" x="685.00" y="261.76" font-size="26">42</text>
    <text class="key-part part-1" x="685.00" y="289.04" font-size="18">right</text>
    <text class="key-index" x="755.00" y="261.76" font-size="26">43</text>
    <text class="key-part part-1" x="755.00" y="289.04" font-size="18">right</text>
    <text class="key-index" x="825.00" y="253.36" font-size="26">44</text>
    <text class="key-part part-1" x="825.00" y="280.64" font-size="18">right</text>
    <text class="key-index" x="895.00" y="261.76" font-size="26">45</text>
    <text class="key-part part-1" x="895.00" y="289.04" font-size="18">right</text>
    <text class="key-index" x="965.00" y="279.96" font-size="26">46</text>
    <text class="key-part part-1" x="965.00" y="307.24" font-size="18">right</text>
    <text class="key-index" x="1035.00" y="279.96" font-size="26">47</text>
    <text class="key-part part-1" x="1035.00" y="307.24" font-size="18">right</text>
    <text class="key-index" x="404.99" y="353.62" font-size="26" transform="rotate(15 404.99 365.26)">48</text>
    <text class="key-part part-0" x="404.99" y="380.90" font-size="18" transform="rotate(15 404.99 365.26)">left</text>
    <text class="key-index" x="471.52" y="375.79" font-size="26" transform="rotate(15 471.52 387.43)">49</text>
    <text class="key-part part-0" x="471.52" y="403.07" font-size="18" transform="rotate(15 471.52 387.43)">left</text>
    <text class="key-index" x="429.06" y="436.88" font-size="26" transform="rotate(15 429.06 448.52)">50</text>
    <text class="key-part part-0" x="429.06" y="464.16" font-size="18" transform="rotate(15 429.06 448.52)">left</text>
    <text class="key-index" x="679.40" y="367.37" font-size="26" transform="rotate(-30 679.40 379.01)">51</text>
    <text class="key-part part-1" x="679.40" y="394.65" font-size="18" transform="rotate(-30 679.40 379.01)">right</text>
    <text class="key-index" x="742.48" y="338.22" font-size="26" transform="rotate(-15 742.48 349.86)">52</text>
    <text class="key-part part-1" x="742.48" y="365.50" font-size="18" transform="rotate(-15 742.48 349.86)">right</text>
    <text class="key-index" x="815.05" y="325.27" font-size="26" transform="rotate(-5 815.05 336.91)">53</text>
    <text class="key-part part-1" x="815.05" y="352.55" font-size="18" transform="rotate(-5 815.05 336.91)">right</text>
    <text class="key-index" x="714.40" y="427.99" font-size="26" transform="rotate(-30 714.40 439.63)">54</text>
    <text class="key-part part-1" x="714.40" y="455.27" font-size="18" transform="rotate(-30 714.40 439.63)">right</text>
    <text class="key-index" x="778.00" y="403.13" font-size="26" transform="rotate(-15 778.00 414.77)">55</text>
    <text class="key-part part-1" x="778.00" y="430.41" font-size="18" transform="rotate(-15 778.00 414.77)">right</text>
  </g>
</svg>
